<svg width="137" height="26" fill="none" xmlns="http://www.w3.org/2000/svg"><path d="M18.426 22.083h-4.635L6.31 9.07h-.106c.15 2.298.224 3.937.224 4.918v8.094H3.168v-17.2h4.6l7.47 12.882h.082c-.117-2.235-.176-3.815-.176-4.74V4.882h3.282v17.2ZM26.308 15.483c0 1.302.211 2.286.635 2.953.431.666 1.13 1 2.094 1 .957 0 1.643-.33 2.059-.988.423-.667.635-1.655.635-2.965 0-1.302-.212-2.279-.635-2.93-.424-.65-1.118-.976-2.083-.976-.957 0-1.647.326-2.07.976-.424.644-.636 1.62-.636 2.93Zm9.093 0c0 2.141-.564 3.815-1.694 5.023-1.13 1.208-2.702 1.812-4.717 1.812-1.263 0-2.377-.275-3.341-.824-.965-.556-1.706-1.352-2.224-2.388-.517-1.035-.776-2.243-.776-3.623 0-2.15.56-3.82 1.682-5.012 1.122-1.192 2.698-1.788 4.73-1.788 1.262 0 2.376.275 3.34.824.965.549 1.706 1.337 2.224 2.364.517 1.028.776 2.231.776 3.612ZM44.87 19.46c.628 0 1.381-.138 2.26-.413v2.671c-.895.4-1.993.6-3.295.6-1.435 0-2.482-.36-3.14-1.082-.652-.73-.977-1.82-.977-3.27v-6.342H38v-1.517l1.977-1.2 1.035-2.777h2.294v2.8h3.682v2.694h-3.682v6.341c0 .51.141.886.424 1.13.29.243.67.364 1.14.364ZM61.856 22.083h-3.588v-17.2h9.859v2.988h-6.27v4.435h5.835v2.977h-5.835v6.8ZM75.032 15.483c0 1.302.211 2.286.635 2.953.431.666 1.13 1 2.094 1 .957 0 1.643-.33 2.059-.988.423-.667.635-1.655.635-2.965 0-1.302-.212-2.279-.635-2.93-.424-.65-1.118-.976-2.083-.976-.956 0-1.647.326-2.07.976-.424.644-.635 1.62-.635 2.93Zm9.093 0c0 2.141-.564 3.815-1.694 5.023-1.129 1.208-2.701 1.812-4.717 1.812-1.263 0-2.376-.275-3.341-.824-.965-.556-1.706-1.352-2.224-2.388-.517-1.035-.776-2.243-.776-3.623 0-2.15.56-3.82 1.682-5.012 1.122-1.192 2.698-1.788 4.73-1.788 1.262 0 2.376.275 3.34.824.965.549 1.706 1.337 2.224 2.364.518 1.028.776 2.231.776 3.612ZM97.371 22.083 96.89 20.4H96.7c-.385.612-.93 1.087-1.636 1.424-.706.33-1.51.494-2.411.494-1.545 0-2.71-.412-3.494-1.235-.785-.832-1.177-2.024-1.177-3.577V8.93h3.588v7.682c0 .95.169 1.663.506 2.141.337.47.875.706 1.612.706 1.004 0 1.73-.333 2.176-1 .447-.674.67-1.788.67-3.34V8.93h3.589v13.153h-2.753ZM116.993 22.083h-3.588V14.4c0-.95-.169-1.66-.506-2.13-.337-.478-.874-.717-1.612-.717-1.003 0-1.729.337-2.176 1.011-.447.667-.671 1.777-.671 3.33v6.188h-3.588V8.93h2.741l.483 1.682h.2c.4-.635.949-1.113 1.647-1.435.706-.33 1.506-.494 2.4-.494 1.529 0 2.69.416 3.482 1.247.792.824 1.188 2.016 1.188 3.577v8.576ZM125.815 22.318c-1.545 0-2.76-.6-3.647-1.8-.878-1.2-1.317-2.863-1.317-4.988 0-2.157.447-3.835 1.341-5.035.902-1.208 2.141-1.812 3.718-1.812 1.654 0 2.917.643 3.788 1.93h.117c-.18-.98-.27-1.855-.27-2.624V3.777h3.6v18.306h-2.753l-.694-1.706h-.153c-.816 1.294-2.059 1.94-3.73 1.94Zm1.259-2.859c.918 0 1.588-.266 2.012-.8.431-.533.667-1.439.706-2.717v-.389c0-1.411-.22-2.423-.659-3.035-.431-.612-1.137-.917-2.118-.917-.8 0-1.423.34-1.87 1.023-.439.675-.659 1.659-.659 2.953 0 1.294.224 2.267.671 2.917.447.644 1.086.965 1.917.965Z" fill="#fff"/><path fill-rule="evenodd" clip-rule="evenodd" d="M21.438 25.094h-9.39l-2.61-4.54v4.54H.156V1.871h9.347l2.63 4.535V1.871h9.305v7.383c.212-.293.445-.576.7-.846C23.96 6.47 26.412 5.67 29.06 5.67c1.712 0 3.353.377 4.831 1.218.599.341 1.142.743 1.628 1.2l2.001-1.214 1.4-3.757h7.398v2.8H50v8.718h-3.682v1.51l3.823-1.195v8.719l-1.782.797c-1.386.62-2.93.863-4.524.863-1.88 0-3.912-.472-5.365-2.064l-.011-.012-.012-.013a6.45 6.45 0 0 1-1.32-2.344 8.628 8.628 0 0 1-1.22 1.666c-1.82 1.947-4.264 2.767-6.917 2.767-1.712 0-3.353-.377-4.831-1.218l-.008-.005-.008-.004a8.47 8.47 0 0 1-2.705-2.467v3.458Zm13.929-10.458a8.007 8.007 0 0 0-.378-1.89 6.636 6.636 0 0 0-.364-.875c-.518-1.027-1.259-1.816-2.224-2.364a5.952 5.952 0 0 0-.78-.372c-.772-.301-1.625-.452-2.56-.452h-.048c-.872.004-1.66.119-2.363.344a5.375 5.375 0 0 0-2.319 1.444c-1.122 1.192-1.682 2.863-1.682 5.012 0 1.38.258 2.588.776 3.623.518 1.035 1.259 1.831 2.224 2.388.229.13.466.246.712.345.79.32 1.666.479 2.629.479h.047c.936-.005 1.776-.14 2.52-.407a5.388 5.388 0 0 0 2.15-1.405c1.13-1.208 1.694-2.882 1.694-5.023 0-.29-.011-.573-.034-.847Zm-4.968-2.742c-.364-.205-.81-.31-1.339-.317h-.047c-.506 0-.937.091-1.294.273a1.995 1.995 0 0 0-.776.704c-.424.643-.636 1.62-.636 2.929 0 1.302.212 2.286.636 2.953.18.279.408.5.682.662.37.219.825.331 1.365.337h.047c.535 0 .985-.102 1.35-.308.29-.162.525-.389.709-.68.423-.666.635-1.654.635-2.964 0-1.302-.212-2.279-.636-2.93a1.99 1.99 0 0 0-.697-.659Zm13.33 7.2c-.282-.243-.423-.62-.423-1.129v-6.34h3.682V8.93h-3.682v-2.8h-2.294l-1.035 2.777-1.977 1.2v1.517h1.718v6.341c0 1.451.325 2.541.976 3.27.62.68 1.584 1.04 2.892 1.08a11.164 11.164 0 0 0 1.284-.042c.86-.081 1.613-.266 2.26-.555v-2.67c-.38.118-.737.211-1.07.279a6.042 6.042 0 0 1-1.19.132 1.991 1.991 0 0 1-.806-.155 1.44 1.44 0 0 1-.334-.21Zm-28.585-6.07c0 .676.031 1.701.094 3.075a240.938 240.938 0 0 0 .082 1.666h-.082L7.768 4.883h-4.6v17.2h3.259v-8.094c0-.712-.04-1.77-.118-3.174-.029-.515-.063-1.077-.102-1.685l-.004-.059h.106l7.482 13.012h4.635v-17.2h-3.282v8.141Zm49.724 12.07h-9.611V1.871h15.881v6.256c1.79-1.734 4.13-2.456 6.646-2.456 1.712 0 3.353.377 4.831 1.218a8.417 8.417 0 0 1 2.357 1.981V5.918h24.891l.021.074c.791-.22 1.61-.32 2.439-.32 2.066 0 4.128.573 5.658 2.176a6.735 6.735 0 0 1 1.211 1.747c.175-.31.37-.61.585-.9l.002-.002c1.5-2.01 3.655-3.022 6.131-3.022.21 0 .418.008.623.022V.766h9.623v24.328h-7.79l-.057-.14a8.12 8.12 0 0 1-2.494.376c-2.32 0-4.348-.91-5.81-2.69v2.454H95.102l-.023-.079a9.135 9.135 0 0 1-2.425.315c-2.064 0-4.141-.56-5.675-2.17l-.005-.006-.005-.005a6.838 6.838 0 0 1-1.291-1.957 8.614 8.614 0 0 1-1.047 1.371c-1.82 1.947-4.264 2.767-6.917 2.767-1.712 0-3.353-.377-4.83-1.218l-.009-.005-.008-.004c-1.496-.864-2.64-2.109-3.411-3.65a9.975 9.975 0 0 1-.78-2.159h-3.808v6.8Zm2.824-9.811v-2.977h-5.835V7.871h6.27V4.883h-9.859v17.2h3.588v-6.8h5.836Zm29.68 6.8h2.752V8.93h-3.588v6.188c0 .907-.076 1.664-.229 2.27-.108.434-.256.79-.442 1.071a2.1 2.1 0 0 1-.987.796c-.27.109-.577.174-.92.196l-.026.001c-.079.005-.16.007-.243.007a2.42 2.42 0 0 1-.905-.155 1.569 1.569 0 0 1-.707-.55c-.337-.48-.506-1.193-.506-2.142V8.93h-3.588v8.576c0 1.553.392 2.745 1.177 3.577.729.765 1.786 1.175 3.172 1.229.106.004.213.006.322.006.36 0 .706-.027 1.035-.08.192-.03.379-.07.56-.118.285-.077.557-.175.816-.296.68-.325 1.211-.778 1.593-1.358a3.54 3.54 0 0 0 .043-.066h.188l.482 1.683Zm33.02 0h2.753V3.777h-3.6V7.99c0 .355.019.733.057 1.133a19.52 19.52 0 0 0 .213 1.49h-.117c-.666-.982-1.56-1.59-2.683-1.822a5.03 5.03 0 0 0-.462-.072 5.771 5.771 0 0 0-.643-.035c-1.577 0-2.816.604-3.718 1.812-.894 1.2-1.341 2.878-1.341 5.035 0 2.125.439 3.788 1.317 4.988.873 1.181 2.065 1.781 3.575 1.8a5.76 5.76 0 0 0 1.331-.141l.095-.024c.975-.26 1.749-.823 2.321-1.692l.055-.084h.153l.694 1.706Zm-1.259-9.565a2.04 2.04 0 0 0-1.1-.78 3.442 3.442 0 0 0-1.018-.137 2.33 2.33 0 0 0-.745.115c-.453.152-.828.455-1.125.908-.439.675-.659 1.659-.659 2.953 0 1.294.224 2.266.671 2.917.26.375.586.64.976.797.28.112.594.168.941.168.317 0 .605-.032.863-.095.489-.121.872-.356 1.149-.705.192-.237.344-.547.459-.931.034-.115.064-.236.091-.363.087-.408.139-.882.156-1.423v-.389c0-.758-.064-1.401-.19-1.929-.11-.454-.266-.823-.469-1.106ZM115.805 9.93c-.747-.784-1.822-1.198-3.224-1.243a6.463 6.463 0 0 0-1.294.076 5.542 5.542 0 0 0-.573.124 4.974 4.974 0 0 0-.791.29 3.763 3.763 0 0 0-1.647 1.435h-.2l-.483-1.682h-2.741v13.153h3.588v-6.188c0-.909.077-1.666.23-2.271.108-.43.255-.782.441-1.059.245-.37.574-.638.987-.805a2.96 2.96 0 0 1 .923-.198l.014-.001c.082-.005.166-.008.252-.008.331 0 .622.049.872.145.307.118.554.31.74.573.337.47.506 1.18.506 2.13v7.682h3.588v-8.577c0-1.56-.396-2.752-1.188-3.576ZM74.373 21.494c-.965-.556-1.706-1.352-2.224-2.388-.517-1.035-.776-2.243-.776-3.623 0-2.15.56-3.82 1.682-5.012a5.374 5.374 0 0 1 2.32-1.444c.703-.225 1.49-.34 2.362-.344h.047c.936 0 1.79.15 2.56.452.271.105.531.23.782.372.964.549 1.705 1.337 2.223 2.364.518 1.028.776 2.231.776 3.612 0 2.14-.564 3.815-1.694 5.023a5.389 5.389 0 0 1-2.15 1.405c-.744.267-1.584.402-2.52.407h-.047c-.963 0-1.839-.16-2.628-.479a5.934 5.934 0 0 1-.713-.345Zm4.75-9.6c-.364-.205-.81-.31-1.339-.317h-.047c-.506 0-.937.091-1.294.273a1.996 1.996 0 0 0-.776.704c-.424.643-.635 1.62-.635 2.929 0 1.302.211 2.286.635 2.953.18.279.408.5.682.662.37.219.825.331 1.365.337h.047c.535 0 .985-.102 1.35-.308.29-.162.525-.389.709-.68.423-.666.635-1.654.635-2.964 0-1.302-.212-2.279-.635-2.93-.183-.28-.415-.5-.697-.66Z" fill="#1D2828"/></svg>